<?xml version="1.0" encoding="UTF-8" standalone="no"?>
<!-- Generator: Adobe Illustrator 14.0.0, SVG Export Plug-In . SVG Version: 6.00 Build 43363)  -->

<svg
   xmlns:dc="http://purl.org/dc/elements/1.1/"
   xmlns:cc="http://creativecommons.org/ns#"
   xmlns:rdf="http://www.w3.org/1999/02/22-rdf-syntax-ns#"
   xmlns:svg="http://www.w3.org/2000/svg"
   xmlns="http://www.w3.org/2000/svg"
   xmlns:sodipodi="http://sodipodi.sourceforge.net/DTD/sodipodi-0.dtd"
   xmlns:inkscape="http://www.inkscape.org/namespaces/inkscape"
   version="1.1"
   id="Layer_1"
   x="0px"
   y="0px"
   width="100"
   height="100"
   viewBox="0 0 100 100"
   enable-background="new 0 0 612 792"
   xml:space="preserve"
   inkscape:version="0.48.4 r9939"
   sodipodi:docname="la-caixa.svg"><title
   id="title3018">La Caixa logo</title><metadata
   id="metadata41"><rdf:RDF><cc:Work
       rdf:about=""><dc:format>image/svg+xml</dc:format><dc:type
         rdf:resource="http://purl.org/dc/dcmitype/StillImage" /><dc:title>La Caixa logo</dc:title></cc:Work></rdf:RDF></metadata><defs
   id="defs39" /><sodipodi:namedview
   pagecolor="#ffffff"
   bordercolor="#666666"
   borderopacity="1"
   objecttolerance="10"
   gridtolerance="10"
   guidetolerance="10"
   inkscape:pageopacity="1"
   inkscape:pageshadow="2"
   inkscape:window-width="1600"
   inkscape:window-height="844"
   id="namedview37"
   showgrid="false"
   inkscape:showpageshadow="false"
   inkscape:zoom="1"
   inkscape:cx="58.297029"
   inkscape:cy="48.482276"
   inkscape:window-x="-4"
   inkscape:window-y="-4"
   inkscape:window-maximized="1"
   inkscape:current-layer="Layer_1" />
<g
   id="g3"
   transform="matrix(0.60968301,0,0,0.61804778,-136.14344,-194.73673)">
	
	<path
   clip-rule="evenodd"
   d="m 338.098,354.165 c 0,0 69.45,88.644 14.899,50.763 0,0 -27.527,-22.73 -42.175,-31.821 0,0 -52.025,115.667 -20.204,-4.799 0,0 -110.869,-14.648 -0.505,-19.446 0,0 -31.822,-43.438 22.729,-7.576 0,0 89.402,-61.875 23.74,12.375 l 1.516,0.504 0,0 z"
   id="path7"
   inkscape:connector-curvature="0"
   style="fill:#4090ce;fill-rule:evenodd" />
	<path
   clip-rule="evenodd"
   d="m 279.001,376.389 c 0,3.535 -3.536,6.313 -7.829,6.313 -4.293,0 -7.577,-2.778 -7.577,-6.313 0,-3.283 3.284,-6.062 7.577,-6.062 4.293,10e-4 7.829,2.779 7.829,6.062 l 0,0 z"
   id="path9"
   inkscape:connector-curvature="0"
   style="fill:#ffc226;fill-rule:evenodd" />
	<path
   clip-rule="evenodd"
   d="m 275.717,405.18 c 0,7.576 -5.051,13.891 -11.112,13.891 -6.314,0 -11.112,-6.314 -11.112,-13.891 0,-7.577 4.798,-13.638 11.112,-13.638 6.062,0 11.112,6.062 11.112,13.638 l 0,0 z"
   id="path11"
   inkscape:connector-curvature="0"
   style="fill:#f04924;fill-rule:evenodd" />
	<path
   clip-rule="evenodd"
   d="m 247.685,470.338 c 0,2.523 0.252,3.029 3.283,3.283 v 1.262 h -11.364 v -1.262 c 2.778,-0.254 3.03,-0.76 3.03,-3.283 V 446.85 c 0,-2.777 0,-2.777 -3.03,-3.031 v -1.262 c 2.021,-0.252 5.556,-1.01 8.082,-1.768 v 29.549 l -0.001,0 z"
   id="path13"
   inkscape:connector-curvature="0"
   style="fill-rule:evenodd" />
	<path
   clip-rule="evenodd"
   d="m 261.828,470.842 c -1.263,0.758 -2.525,1.516 -3.283,1.516 -1.263,0 -2.777,-1.264 -2.777,-3.789 0,-1.768 0.757,-2.777 2.272,-3.535 0.757,-0.504 2.778,-1.516 3.788,-2.02 v 7.828 l 0,0 z m 7.828,0.758 c -0.505,0.252 -1.262,0.758 -1.767,0.758 -0.758,0 -1.515,-0.758 -1.515,-2.777 v -10.355 c 0,-1.516 0,-3.031 -2.021,-4.545 -0.757,-0.758 -2.272,-1.264 -4.04,-1.264 -3.535,0.758 -6.566,2.525 -8.082,3.535 -1.01,0.758 -1.263,1.516 -1.263,2.273 0,1.264 1.263,2.02 2.273,2.02 0.758,0 1.516,-0.252 1.516,-1.01 0.505,-1.768 1.011,-2.777 1.768,-3.535 0.253,-0.506 1.01,-0.758 1.767,-0.758 2.273,0 3.536,1.264 3.536,4.041 v 1.262 c -1.515,1.012 -5.303,2.527 -7.829,3.285 -2.526,1.262 -3.536,2.777 -3.536,5.051 0,2.777 2.273,5.809 5.809,5.809 1.01,0 3.536,-1.768 5.556,-3.031 0.252,1.264 1.263,3.031 3.536,3.031 l 4.798,-2.527 -0.506,-1.263 0,0 z"
   id="path15"
   inkscape:connector-curvature="0"
   style="fill-rule:evenodd" />
	<path
   clip-rule="evenodd"
   d="m 303.498,449.375 c -1.768,-6.061 -5.051,-8.08 -10.102,-8.08 -8.587,0 -12.628,7.322 -12.628,15.404 0,9.85 4.799,16.668 12.628,16.668 5.808,0 8.586,-3.029 11.364,-8.586 l 1.516,0.252 c -0.758,2.525 -2.021,6.818 -2.778,8.84 -1.515,0.504 -6.313,1.768 -10.102,1.768 -13.891,0 -19.446,-9.344 -19.446,-17.68 0,-11.111 8.586,-18.688 20.456,-18.688 4.546,0 8.081,1.01 9.597,1.264 0.505,3.029 0.757,5.555 1.01,8.586 l -1.515,0.252 0,0 z"
   id="path17"
   inkscape:connector-curvature="0"
   style="fill-rule:evenodd" />
	<path
   clip-rule="evenodd"
   d="m 318.398,469.832 c -1.263,1.01 -2.272,1.516 -3.283,1.516 -1.01,0 -2.525,-1.01 -2.525,-3.535 0,-1.516 0.506,-2.527 2.021,-3.283 1.01,-0.506 2.778,-1.516 3.788,-1.77 v 7.072 l -10e-4,0 z m 7.325,1.01 c -0.505,0.252 -1.263,0.506 -1.769,0.506 -0.505,0 -1.263,-0.758 -1.263,-2.525 v -9.85 c 0,-1.516 -0.253,-3.031 -1.768,-4.293 -1.01,-0.758 -2.525,-1.264 -4.041,-1.264 -3.283,0.758 -6.061,2.525 -7.576,3.535 -1.01,0.758 -1.515,1.264 -1.515,2.021 0,1.01 1.515,2.02 2.524,2.02 0.506,0 1.264,-0.504 1.264,-1.01 0.505,-1.768 1.01,-2.777 1.516,-3.283 0.504,-0.506 1.262,-1.01 2.02,-1.01 2.021,0 3.283,1.262 3.283,4.041 v 1.262 c -1.516,0.758 -5.303,2.273 -7.576,3.031 -2.273,1.01 -3.283,2.525 -3.283,4.799 0,2.777 2.021,5.555 5.557,5.555 1.01,0 3.282,-1.768 5.303,-2.777 0.253,1.01 1.01,2.777 3.283,2.777 l 4.546,-2.525 -0.505,-1.01 0,0 z"
   id="path19"
   inkscape:connector-curvature="0"
   style="fill-rule:evenodd" />
	<path
   clip-rule="evenodd"
   d="m 333.551,469.58 c 0,2.523 0.506,2.777 3.031,3.029 v 1.264 h -10.354 v -1.264 c 2.778,-0.252 3.03,-0.506 3.03,-3.029 v -9.85 c 0,-2.525 -0.252,-2.779 -2.777,-3.031 v -1.01 c 2.02,-0.252 4.798,-0.758 7.07,-1.516 v 15.407 l 0,0 z m 0.506,-22.73 c 0,1.516 -1.263,2.777 -2.778,2.777 -1.515,0 -2.778,-1.262 -2.778,-2.777 0,-1.768 1.263,-3.031 2.778,-3.031 1.515,0 2.778,1.263 2.778,3.031 l 0,0 z"
   id="path21"
   inkscape:connector-curvature="0"
   style="fill-rule:evenodd" />
	<path
   clip-rule="evenodd"
   d="m 356.28,455.689 v 1.01 c -2.777,0.252 -3.283,0.506 -5.051,2.525 -0.253,0.506 -1.515,2.02 -3.03,4.041 l 4.293,6.314 c 1.516,2.523 2.273,2.777 4.546,3.029 v 1.264 h -10.102 v -1.264 l 1.263,-0.252 c 0.758,0 0.758,-0.506 0.252,-1.516 l -2.777,-4.041 c -0.758,1.264 -1.769,2.779 -2.525,4.041 -0.758,1.262 -0.506,1.516 0,1.516 l 1.263,0.252 v 1.264 h -7.829 v -1.264 c 2.272,-0.252 3.03,-0.506 4.798,-2.777 1.011,-1.01 2.021,-2.779 3.536,-4.547 l -4.041,-6.061 c -1.263,-2.02 -1.768,-2.273 -3.788,-2.525 v -1.01 h 9.092 v 1.01 l -1.01,0.252 c -0.758,0 -0.758,0.506 -0.253,1.264 l 2.273,3.535 c 1.01,-1.01 1.768,-2.271 2.272,-3.283 0.758,-1.01 1.01,-1.516 0,-1.516 l -1.011,-0.252 v -1.01 h 7.829 l 0,0.001 z"
   id="path23"
   inkscape:connector-curvature="0"
   style="fill-rule:evenodd" />
	<path
   clip-rule="evenodd"
   d="m 368.403,470.084 c -1.01,1.01 -2.273,1.516 -3.283,1.516 -1.01,0 -2.778,-1.262 -2.778,-3.787 0,-1.516 0.758,-2.527 2.272,-3.537 1.011,-0.504 2.779,-1.262 3.789,-1.768 v 7.576 l 0,0 z m 8.081,1.01 c -0.758,0.254 -1.516,0.506 -2.02,0.506 -0.758,0 -1.264,-0.758 -1.264,-2.777 v -10.104 c 0,-1.768 -0.253,-3.281 -2.021,-4.797 -1.01,-0.758 -2.525,-1.01 -4.293,-1.01 -3.536,0.504 -6.313,2.271 -7.829,3.535 -1.01,0.758 -1.515,1.514 -1.515,2.02 0,1.264 1.263,2.273 2.524,2.273 0.758,0 1.263,-0.506 1.516,-1.262 0.253,-1.77 0.758,-2.779 1.516,-3.537 0.505,-0.252 1.011,-0.758 2.021,-0.758 2.02,0 3.283,1.264 3.283,4.295 v 1.262 c -1.516,0.758 -5.304,2.273 -7.577,3.283 -2.525,1.01 -3.788,2.525 -3.788,5.051 0,2.777 2.273,5.809 6.062,5.809 0.758,0 3.536,-2.021 5.556,-3.031 0.253,1.01 1.01,2.779 3.283,3.031 l 5.051,-2.779 -0.505,-1.01 0,0 z"
   id="path25"
   inkscape:connector-curvature="0"
   style="fill-rule:evenodd" />
	<path
   clip-rule="evenodd"
   d="m 385.829,442.809 c 0,0.506 0.504,1.264 0.252,3.031 -0.505,1.768 -1.768,4.547 -4.041,6.818 h -1.515 c 1.768,-2.271 2.021,-4.293 1.515,-6.566 -0.252,-2.02 -1.515,-2.525 -1.768,-3.787 -0.253,-0.758 0,-1.264 0.506,-1.768 0.505,-0.506 1.01,-0.758 2.02,-0.758 0.758,0 1.264,0.252 1.769,0.758 0.504,0.504 1.009,1.514 1.262,2.272 l 0,0 z"
   id="path27"
   inkscape:connector-curvature="0"
   style="fill-rule:evenodd" />
	<path
   clip-rule="evenodd"
   d="m 378.252,442.557 c 0.253,0.758 0.758,1.516 0.253,3.283 -0.253,1.768 -1.768,4.293 -4.04,6.818 h -1.264 c 1.516,-2.525 1.768,-4.545 1.516,-6.566 -0.506,-2.02 -1.769,-2.777 -2.021,-3.787 -0.253,-0.758 0.252,-1.516 0.505,-2.021 0.506,-0.504 1.264,-0.758 2.021,-0.758 0.758,0 1.516,0.254 1.768,0.758 0.504,0.505 1.01,1.515 1.262,2.273 l 0,0 z"
   id="path29"
   inkscape:connector-curvature="0"
   style="fill-rule:evenodd" />
	<path
   clip-rule="evenodd"
   d="m 237.583,443.818 c 0.252,0.758 0.758,1.518 0.252,3.285 -0.252,1.766 -1.515,4.293 -3.789,6.818 h -1.515 c 1.768,-2.525 2.021,-4.547 1.515,-6.566 -0.252,-2.02 -1.767,-2.779 -2.02,-4.041 0,-0.506 0.253,-1.264 0.758,-1.768 0.505,-0.506 1.01,-0.758 1.768,-0.758 1.01,0 1.515,0.252 2.02,0.758 0.506,0.505 1.011,1.517 1.011,2.272 l 0,0 z"
   id="path31"
   inkscape:connector-curvature="0"
   style="fill-rule:evenodd" />
	<path
   clip-rule="evenodd"
   d="m 230.259,443.818 c 0,0.758 0.505,1.264 0.252,3.031 -0.505,1.768 -1.767,4.547 -4.041,6.818 h -1.515 c 1.768,-2.271 2.02,-4.293 1.768,-6.313 -0.505,-2.273 -1.768,-2.779 -2.021,-4.041 -0.252,-0.758 0,-1.264 0.505,-1.768 0.506,-0.506 1.011,-0.758 2.021,-0.758 0.758,0 1.263,0.252 1.768,0.758 0.505,0.506 1.01,1.518 1.263,2.273 l 0,0 z"
   id="path33"
   inkscape:connector-curvature="0"
   style="fill-rule:evenodd" />
	
		<line
   stroke-miterlimit="2.6131"
   x1="240.866"
   y1="430.939"
   x2="375.47501"
   y2="430.939"
   id="line35"
   style="fill:none;stroke:#000000;stroke-width:1.45560002;stroke-miterlimit:2.61310005" />
</g>
</svg>